HIERARCHY
ROOT joint_Root
{
  OFFSET 0 0 0
  CHANNELS 6 Xposition Yposition Zposition Zrotation Xrotation Yrotation
  JOINT Hips
  {
    OFFSET 0.847027 93.984 -452.225
    CHANNELS 6 Xposition Yposition Zposition Zrotation Xrotation Yrotation
    JOINT Spine
    {
      OFFSET 15.7357 0 0
      CHANNELS 6 Xposition Yposition Zposition Zrotation Xrotation Yrotation
      JOINT Chest
      {
        OFFSET 8.98455 -0.406207 0
        CHANNELS 6 Xposition Yposition Zposition Zrotation Xrotation Yrotation
        JOINT Neck
        {
          OFFSET 16.3773 0 0
          CHANNELS 6 Xposition Yposition Zposition Zrotation Xrotation Yrotation
          JOINT Head
          {
            OFFSET 6.45672 0 0
            CHANNELS 6 Xposition Yposition Zposition Zrotation Xrotation Yrotation
            End Site
            {
              OFFSET 0 0 0
            }
          }
        }
        JOINT Shoulder_L
        {
          OFFSET 12.9942 -0.242716 4.98039
          CHANNELS 6 Xposition Yposition Zposition Zrotation Xrotation Yrotation
          JOINT UpperArm_L
          {
            OFFSET 5.34809 0 0
            CHANNELS 6 Xposition Yposition Zposition Zrotation Xrotation Yrotation
            JOINT LowerArm_L
            {
              OFFSET 24.3286 1.87007e-05 0
              CHANNELS 6 Xposition Yposition Zposition Zrotation Xrotation Yrotation
              JOINT Hand_L
              {
                OFFSET 22.2916 0 0
                CHANNELS 6 Xposition Yposition Zposition Zrotation Xrotation Yrotation
                End Site
                {
                  OFFSET 0 0 0
                }
              }
            }
          }
        }
        JOINT Shoulder_R
        {
          OFFSET 12.9945 -0.242716 -4.98039
          CHANNELS 6 Xposition Yposition Zposition Zrotation Xrotation Yrotation
          JOINT UpperArm_R
          {
            OFFSET -5.34813 0 0
            CHANNELS 6 Xposition Yposition Zposition Zrotation Xrotation Yrotation
            JOINT LowerArm_R
            {
              OFFSET -24.3289 0.000322201 0
              CHANNELS 6 Xposition Yposition Zposition Zrotation Xrotation Yrotation
              JOINT Hand_R
              {
                OFFSET -22.2915 -0.000108084 0
                CHANNELS 6 Xposition Yposition Zposition Zrotation Xrotation Yrotation
                End Site
                {
                  OFFSET 0 0 0
                }
              }
            }
          }
        }
      }
    }
    JOINT UpperLeg_L
    {
      OFFSET -2.19248 -6.46944 0
      CHANNELS 6 Xposition Yposition Zposition Zrotation Xrotation Yrotation
      JOINT LowerLeg_L
      {
        OFFSET 39.0811 0 -1.23785e-05
        CHANNELS 6 Xposition Yposition Zposition Zrotation Xrotation Yrotation
        JOINT Foot_L
        {
          OFFSET 40.9854 0 -1.26872e-05
          CHANNELS 6 Xposition Yposition Zposition Zrotation Xrotation Yrotation
          JOINT Toes_L
          {
            OFFSET 11.7543 0 0
            CHANNELS 6 Xposition Yposition Zposition Zrotation Xrotation Yrotation
            End Site
            {
              OFFSET 0 0 0
            }
          }
        }
      }
    }
    JOINT UpperLeg_R
    {
      OFFSET -2.19251 6.46944 0
      CHANNELS 6 Xposition Yposition Zposition Zrotation Xrotation Yrotation
      JOINT LowerLeg_R
      {
        OFFSET -39.0811 -0.00228153 -0.0401928
        CHANNELS 6 Xposition Yposition Zposition Zrotation Xrotation Yrotation
        JOINT Foot_R
        {
          OFFSET -40.9854 0 0
          CHANNELS 6 Xposition Yposition Zposition Zrotation Xrotation Yrotation
          JOINT Toes_R
          {
            OFFSET -11.7543 0 0
            CHANNELS 6 Xposition Yposition Zposition Zrotation Xrotation Yrotation
            End Site
            {
              OFFSET 0 0 0
            }
          }
        }
      }
    }
  }
}
MOTION
Frames:	8
Frame Time:	0.0333333
0 0 0 0 0 -0 215.199 87.9101 -55.8992 85.1942 -64.7504 -9.60635 15.7357 5.1072e-06 -5.51765e-07 95.2263 81.2167 -97.8608 8.98455 -0.406207 -4.3199e-07 9.77133 1.54456 -5.39736 16.3773 -1.3905e-06 -6.99897e-07 -1.94829 13.2537 1.00256 6.45672 -1.25837e-06 -1.02172e-07 -14.1709 23.0682 0.630556 12.9942 -0.242716 4.98039 -91.0287 3.29176 -87.6362 5.34809 -7.22636e-06 -6.2814e-07 -64.7611 5.97366 -6.6741 24.3286 1.87007e-05 4.90208e-06 -0.447327 -0.921048 -25.9095 22.2916 -9.88446e-07 4.63217e-06 21.7188 5.52635 -7.63431 12.9945 -0.242716 -4.98039 88.4451 9.99006 -96.107 -5.34813 -1.25947e-06 -3.79883e-06 -61.1382 8.87425 -3.62634 -24.3289 0.000322201 -8.65921e-06 8.25173 8.78659 -43.5169 -22.2915 -0.000108084 -4.47941e-06 11.7055 5.3633 -1.78099 -2.19248 -6.46944 -1.22533e-07 -173.791 1.00972 -31.1431 39.0811 -6.73843e-06 -1.23785e-05 0.0322951 -0.0257189 48.0868 40.9854 -6.48686e-06 -1.26872e-05 -2.19566 2.05124 -70.913 11.7543 -2.30145e-07 3.05095e-06 0.00359696 -0.00554168 -16.6767 -2.19251 6.46944 -1.45247e-06 177.989 23.148 161.605 -39.0811 -0.00228153 -0.0401928 0.499454 -0.257957 61.2414 -40.9854 7.72618e-06 5.99936e-06 -7.23985 1.56758 -61.0402 -11.7543 -5.6619e-06 -5.58687e-06 0.439093 -0.534032 -21.6585 
0 0 0 0 0 -0 213.126 88.4702 -55.6195 83.5768 -65.0408 -11.1047 15.7357 5.1072e-06 -5.51765e-07 94.7957 81.3168 -97.2764 8.98455 -0.406207 -4.3199e-07 9.57718 1.40414 -5.0753 16.3773 -1.3905e-06 -6.99897e-07 -2.10568 13.393 0.922749 6.45672 -1.25837e-06 -1.02172e-07 -14.2972 23.3686 0.814323 12.9942 -0.242716 4.98039 -90.9409 3.035 -87.7669 5.34809 -7.22636e-06 -6.2814e-07 -64.6978 6.25235 -8.99091 24.3286 1.87007e-05 4.90208e-06 -0.872698 -1.5244 -29.7783 22.2916 -9.88446e-07 4.63217e-06 22.2467 5.53015 -7.80036 12.9945 -0.242716 -4.98039 88.4198 10.0398 -96.0079 -5.34813 -1.25947e-06 -3.79883e-06 -62.536 9.51559 -1.49911 -24.3289 0.000322201 -8.65921e-06 8.55525 9.65819 -41.8871 -22.2915 -0.000108084 -4.47941e-06 11.1126 5.36634 -1.8736 -2.19248 -6.46944 -1.22534e-07 -172.674 1.31841 -28.6691 39.0811 -6.73843e-06 -1.23785e-05 0.037132 -0.0311645 46.3519 40.9854 -6.48686e-06 -1.26872e-05 -2.75626 1.51389 -71.5087 11.7543 -2.30145e-07 3.05095e-06 0.0109636 -0.0169979 -16.8815 -2.19251 6.46944 -1.45247e-06 178.205 23.0909 159.555 -39.0811 -0.00228153 -0.0401928 0.544503 -0.259171 63.3762 -40.9854 7.72618e-06 5.99936e-06 -7.94008 1.31143 -61.2797 -11.7543 -5.6619e-06 -5.58687e-06 0.331717 -0.394264 -20.3631 
0 0 0 0 0 -0 211.328 89.1867 -55.4425 81.9865 -65.3163 -12.8562 15.7357 5.1072e-06 -5.51765e-07 93.8706 81.4387 -96.144 8.98455 -0.406207 -4.3199e-07 9.34519 1.11799 -4.63465 16.3773 -1.3905e-06 -6.99897e-07 -2.30695 13.6131 0.887806 6.45672 -1.25837e-06 -1.02172e-07 -14.7029 23.6997 0.912702 12.9942 -0.242716 4.98039 -90.8996 2.88526 -87.6739 5.34809 -7.22636e-06 -6.2814e-07 -64.1676 7.23703 -11.0309 24.3286 1.87007e-05 4.90208e-06 -1.697 -2.4815 -34.3725 22.2916 -9.88446e-07 4.63217e-06 23.1723 5.54071 -8.27091 12.9945 -0.242716 -4.98039 88.4087 10.0738 -95.9755 -5.34813 -1.25947e-06 -3.79883e-06 -63.8481 9.64532 0.341606 -24.3289 0.000322201 -8.65921e-06 8.68811 10.4453 -40.1303 -22.2915 -0.000108084 -4.47941e-06 10.3825 5.37203 -2.049 -2.19248 -6.46944 -1.22533e-07 -171.633 1.54319 -26.3251 39.0811 -6.73843e-06 -1.23785e-05 0.0441271 -0.0409375 43.8474 40.9854 -6.48686e-06 -1.26872e-05 -3.30747 1.03573 -71.4302 11.7543 -2.30145e-07 3.05095e-06 0.0143467 -0.0222783 -16.976 -2.19251 6.46944 -1.45247e-06 178.593 23.4792 157.318 -39.0811 -0.00228153 -0.0401928 0.530591 -0.265457 62.3836 -40.9854 7.72618e-06 5.99936e-06 -7.8374 0.749193 -61.5276 -11.7543 -5.6619e-06 -5.58687e-06 0.320533 -0.380078 -20.2301 
0 0 0 0 0 -0 209.722 89.9133 -55.3199 80.586 -65.6071 -14.5304 15.7357 5.1072e-06 -5.51764e-07 93.0746 81.5618 -95.0625 8.98455 -0.406207 -4.3199e-07 9.10536 0.877068 -4.04224 16.3773 -1.3905e-06 -6.99897e-07 -2.27767 13.592 0.781643 6.45672 -1.25837e-06 -1.02172e-07 -15.1279 23.9327 0.985134 12.9942 -0.242716 4.98039 -90.7978 2.56401 -87.7101 5.34809 -7.22636e-06 -6.2814e-07 -64.0124 7.87055 -12.5896 24.3286 1.87007e-05 4.90208e-06 -1.98233 -2.42635 -39.2747 22.2916 -9.88446e-07 4.63217e-06 24.2843 5.55289 -8.84079 12.9945 -0.242716 -4.98039 88.4251 9.86248 -95.8805 -5.34813 -1.25947e-06 -3.79883e-06 -64.9922 9.3049 2.11912 -24.3289 0.000322201 -8.65921e-06 8.73173 11.0781 -38.6405 -22.2915 -0.000108084 -4.47941e-06 9.78085 5.37032 -1.99751 -2.19248 -6.46944 -1.22533e-07 -170.797 1.55452 -24.0595 39.0811 -6.73843e-06 -1.23785e-05 0.0509806 -0.0528201 40.9749 40.9854 -6.48686e-06 -1.26872e-05 -3.5548 0.555975 -70.9099 11.7543 -2.30145e-07 3.05095e-06 0.0246097 -0.0383979 -17.2626 -2.19251 6.46944 -1.45247e-06 178.955 23.877 155.308 -39.0811 -0.00228153 -0.0401928 0.468726 -0.275565 58.5488 -40.9854 7.72618e-06 5.99936e-06 -7.99055 0.649399 -61.736 -11.7543 -5.6619e-06 -5.58687e-06 0.304953 -0.360408 -20.0457 
0 0 0 0 0 -0 208.255 90.55 -55.2977 79.4762 -65.9054 -16.1253 15.7357 5.1072e-06 -5.51765e-07 91.8353 81.6708 -93.5374 8.98455 -0.406207 -4.3199e-07 8.89416 0.514011 -3.44115 16.3773 -1.3905e-06 -6.99897e-07 -2.35258 13.7014 0.802838 6.45672 -1.25837e-06 -1.02172e-07 -15.4322 24.0748 1.01851 12.9942 -0.242716 4.98039 -90.6532 2.08719 -87.6177 5.34809 -7.22636e-06 -6.2814e-07 -63.9375 8.27691 -13.94 24.3286 1.87007e-05 4.90208e-06 -2.0381 -2.10631 -44.0722 22.2916 -9.88446e-07 4.63217e-06 25.0848 5.56066 -9.21636 12.9945 -0.242716 -4.98039 88.4654 9.62764 -95.8989 -5.34813 -1.25947e-06 -3.79883e-06 -65.814 8.74173 3.63171 -24.3289 0.000322201 -8.65921e-06 8.73719 11.4782 -37.683 -22.2915 -0.000108084 -4.47941e-06 9.12048 5.36728 -1.90164 -2.19248 -6.46944 -1.22534e-07 -170.063 1.22741 -22.2051 39.0811 -6.73843e-06 -1.23785e-05 0.0579905 -0.0667001 38.2604 40.9854 -6.48686e-06 -1.26872e-05 -3.79904 0.433962 -70.2208 11.7543 -2.30145e-07 3.05095e-06 0.0294382 -0.0460666 -17.3992 -2.19251 6.46944 -1.45247e-06 179.396 24.189 153.426 -39.0811 -0.00228153 -0.0401928 0.374165 -0.27661 52.5078 -40.9854 7.72618e-06 5.99936e-06 -8.03648 0.92848 -61.7117 -11.7543 -5.6619e-06 -5.58687e-06 0.298233 -0.351985 -19.9666 
0 0 0 0 0 -0 206.835 91.0089 -55.3389 79.1905 -65.9603 -16.887 15.7357 5.1072e-06 -5.51765e-07 90.2479 81.7033 -91.6644 8.98455 -0.406207 -4.3199e-07 8.82945 0.0580007 -2.83493 16.3773 -1.3905e-06 -6.99897e-07 -2.33962 13.6075 0.841367 6.45672 -1.25837e-06 -1.02172e-07 -15.656 24.1828 1.06789 12.9942 -0.242716 4.98039 -90.4736 1.51875 -87.6795 5.34809 -7.22636e-06 -6.2814e-07 -64.0217 8.4984 -14.9803 24.3286 1.87007e-05 4.90208e-06 -2.47588 -2.17913 -48.6679 22.2916 -9.88446e-07 4.63217e-06 25.5085 5.56478 -9.42363 12.9945 -0.242716 -4.98039 88.476 9.45413 -95.7995 -5.34813 -1.25947e-06 -3.79883e-06 -66.1204 8.26407 4.97689 -24.3289 0.000322201 -8.65921e-06 8.77536 11.6837 -37.3208 -22.2915 -0.000108084 -4.47941e-06 8.5773 5.37171 -2.0394 -2.19248 -6.46944 -1.22534e-07 -169.626 0.751095 -20.6647 39.0811 -6.73843e-06 -1.23785e-05 0.0633577 -0.0786665 36.0246 40.9854 -6.48686e-06 -1.26872e-05 -3.7916 0.627891 -69.5678 11.7543 -2.30145e-07 3.05095e-06 0.0380106 -0.059793 -17.6425 -2.19251 6.46944 -1.45247e-06 179.627 24.5856 152.005 -39.0811 -0.00228153 -0.0401928 0.272245 -0.262654 44.9574 -40.9854 7.72618e-06 5.99936e-06 -7.99653 1.33389 -60.9648 -11.7543 -5.6619e-06 -5.58687e-06 0.281378 -0.330924 -19.7682 
0 0 0 0 0 -0 205.412 91.2419 -55.4857 79.7993 -65.7506 -16.847 15.7357 5.1072e-06 -5.51765e-07 88.4895 81.6895 -89.6392 8.98455 -0.406207 -4.3199e-07 8.8461 -0.446783 -2.26282 16.3773 -1.3905e-06 -6.99897e-07 -2.31568 13.4291 0.942348 6.45672 -1.25837e-06 -1.02172e-07 -15.755 24.1669 1.00528 12.9942 -0.242716 4.98039 -90.2972 0.966002 -87.9 5.34809 -7.22636e-06 -6.2814e-07 -64.1465 8.6132 -15.7627 24.3286 1.87007e-05 4.90208e-06 -3.10087 -2.36258 -52.7237 22.2916 -9.88446e-07 4.63217e-06 25.6405 5.56527 -9.44829 12.9945 -0.242716 -4.98039 88.4312 9.39178 -95.4725 -5.34813 -1.25947e-06 -3.79883e-06 -65.9953 7.89015 6.10684 -24.3289 0.000322201 -8.65921e-06 8.92341 11.8402 -37.4282 -22.2915 -0.000108084 -4.47941e-06 8.63185 5.37238 -2.05895 -2.19248 -6.46944 -1.22533e-07 -169.36 0.524016 -19.6472 39.0811 -6.73843e-06 -1.23785e-05 0.0691464 -0.0898778 34.5436 40.9854 -6.48686e-06 -1.26872e-05 -4.02411 1.06349 -69.1286 11.7543 -2.30145e-07 3.05095e-06 0.0469216 -0.0741508 -17.8961 -2.19251 6.46944 -1.45247e-06 179.718 25.0223 150.793 -39.0811 -0.00228153 -0.0401928 0.18886 -0.245738 36.4935 -40.9854 7.72618e-06 5.99936e-06 -7.5123 1.1047 -57.9639 -11.7543 -5.6619e-06 -5.58687e-06 0.304132 -0.359383 -20.0362 
0 0 0 0 0 -0 203.928 91.2507 -55.7738 81.1746 -65.2435 -16.1411 15.7357 5.1072e-06 -5.51765e-07 86.5043 81.647 -87.4265 8.98455 -0.406207 -4.3199e-07 8.9024 -1.02252 -1.76328 16.3773 -1.3905e-06 -6.99897e-07 -2.27139 13.2343 0.962409 6.45672 -1.25837e-06 -1.02172e-07 -15.9514 24.2816 1.12498 12.9942 -0.242716 4.98039 -90.1632 0.536369 -88.0771 5.34809 -7.22636e-06 -6.2814e-07 -63.9782 8.9592 -16.3804 24.3286 1.87007e-05 4.90208e-06 -4.16203 -2.81578 -55.9745 22.2916 -9.88446e-07 4.63217e-06 25.703 5.56772 -9.5721 12.9945 -0.242716 -4.98039 88.3571 9.46614 -95.1073 -5.34813 -1.25947e-06 -3.79883e-06 -65.6064 7.3415 7.06954 -24.3289 0.000322201 -8.65921e-06 8.82431 11.5626 -37.7618 -22.2915 -0.000108084 -4.47941e-06 8.65289 5.3723 -2.05787 -2.19248 -6.46944 -1.22533e-07 -169.221 0.183329 -19.1815 39.0811 -6.73843e-06 -1.23785e-05 0.0768486 -0.101545 33.8611 40.9854 -6.48686e-06 -1.26872e-05 -4.30601 1.91228 -68.9272 11.7543 -2.30145e-07 3.05095e-06 0.0608402 -0.0968741 -18.2964 -2.19251 6.46944 -1.45247e-06 179.378 24.7663 150.054 -39.0811 -0.00228153 -0.0401928 0.120735 -0.224346 27.4015 -40.9854 7.72618e-06 5.99936e-06 -7.38165 0.0178463 -54.0749 -11.7543 -5.6619e-06 -5.58687e-06 0.302142 -0.356887 -20.0127 
